<svg xmlns="http://www.w3.org/2000/svg" width="240" height="56" viewBox="0 0 240 56" fill="none">
  <rect x="4" y="4" width="48" height="48" rx="14" fill="#F97316"/>
  <path d="M16 15H40V20.5H21.5V27.5H36.5V33H21.5V41H16V15Z" fill="white"/>
  <path d="M32 15H39.5L32 28L39.5 41H33L27.5 32H24.5V26.5H27.5L32 15Z" fill="white"/>
  <path d="M69 20.5H91.5V26H75.5V31.5H89.5V36.8H75.5V47H69V20.5Z" fill="#111827"/>
  <path d="M97 20.5H103.8L97.5 32.2L104.5 47H97.4L92.3 36.2H89.7V30.9H92.5L97 20.5Z" fill="#111827"/>
  <path d="M115.5 20.5H126.8C137.7 20.5 144.4 25.8 144.4 33.8C144.4 41.8 137.7 47 126.8 47H115.5V20.5ZM122 26V41.5H126.5C133.5 41.5 137.6 38.8 137.6 33.8C137.6 28.8 133.5 26 126.5 26H122Z" fill="#111827"/>
  <path d="M151 20.5H173.4V25.9H157.5V31.1H171.9V36.1H157.5V41.6H173.6V47H151V20.5Z" fill="#111827"/>
  <path d="M180.2 20.5H186.7L197.1 36.1V20.5H203.4V47H197.3L186.5 30.8V47H180.2V20.5Z" fill="#111827"/>
  <path d="M217.4 26H208.8V20.5H232.5V26H223.9V47H217.4V26Z" fill="#111827"/>
</svg>
