<svg width="128" height="128" viewBox="0 0 128 128" fill="none" xmlns="http://www.w3.org/2000/svg">
  <rect width="128" height="128" rx="28" fill="#0070BA"/>
  <path d="M84.197 35.988c4.594 5.381 6.079 12.715 4.179 20.65-3.776 15.79-15.69 23.453-31.912 23.453H49.33c-1.765 0-3.27 1.286-3.55 3.027l-4.04 25.194a2.127 2.127 0 0 1-2.099 1.79H24.48a1.283 1.283 0 0 1-1.267-1.497l10.67-66.65A4.254 4.254 0 0 1 38.085 38h25.708c8.691 0 15.546 2.34 20.404 7.988Z" fill="#E5F3FF"/>
  <path d="M95.26 46.247c1.26 2.856 1.542 6.285.65 10.012-3.201 13.377-12.857 20.554-28.206 20.554H59.96c-1.34 0-2.48.975-2.692 2.3l-4.482 27.95a1.609 1.609 0 0 1-1.586 1.35H38.68a.969.969 0 0 1-.957-1.13l8.122-50.735a3.217 3.217 0 0 1 3.173-2.727H72.2c8.414 0 15.38-2.64 19.954-7.574.992-.986 1.886-2.001 2.682-3.046.182.35.328.7.424 1.046Z" fill="white"/>
</svg>
