<svg width="128" height="128" viewBox="0 0 128 128" fill="none" xmlns="http://www.w3.org/2000/svg">
  <rect width="128" height="128" rx="28" fill="#635BFF"/>
  <path d="M73.327 54.263c-9.028-3.237-14.714-5.502-14.714-9.903 0-3.633 2.971-5.83 8.252-5.83 6.032 0 12.051 1.738 18.51 5.248l3.693-17.88C82.935 22.89 75.79 21 67.52 21 49.132 21 36.56 31.335 36.56 46.53c0 12.792 9.176 18.812 22.534 23.36 9.654 3.317 15.744 5.773 15.744 10.794 0 4.182-3.525 6.57-10.108 6.57-7.066 0-14.424-2.058-22.765-6.394l-3.928 18.484C46.732 103.2 55.198 105 64.392 105c19.442 0 32.698-10.04 32.698-26.18 0-13.624-8.35-19.891-23.763-24.557Z" fill="white"/>
</svg>
